HIERARCHY
ROOT Hips
{
	OFFSET 0.000000 0.000000 0.000000
	CHANNELS 6 Xposition Yposition Zposition Zrotation Yrotation Xrotation 
	JOINT LHipJoint
	{
		OFFSET 0.000000 0.000000 0.000000
		CHANNELS 3 Zrotation Yrotation Xrotation
		JOINT LeftUpLeg
		{
			OFFSET 1.363060 -1.794630 0.839290
			CHANNELS 3 Zrotation Yrotation Xrotation
			JOINT LeftLeg
			{
				OFFSET 2.448110 -6.726130 0.000000
				CHANNELS 3 Zrotation Yrotation Xrotation
				JOINT LeftFoot
				{
					OFFSET 2.562200 -7.039590 0.000000
					CHANNELS 3 Zrotation Yrotation Xrotation
					JOINT LeftToeBase
					{
						OFFSET 0.157640 -0.433110 2.322550
						CHANNELS 3 Zrotation Yrotation Xrotation
						End Site
						{
							OFFSET 0.000000 0.000000 0.000000
						}
					}
				}
			}
		}
	}
	JOINT RHipJoint
	{
		OFFSET 0.000000 0.000000 0.000000
		CHANNELS 3 Zrotation Yrotation Xrotation
		JOINT RightUpLeg
		{
			OFFSET -1.305520 -1.794630 0.839290
			CHANNELS 3 Zrotation Yrotation Xrotation
			JOINT RightLeg
			{
				OFFSET -2.542530 -6.985550 0.000000
				CHANNELS 3 Zrotation Yrotation Xrotation
				JOINT RightFoot
				{
					OFFSET -2.568260 -7.056230 0.000000
					CHANNELS 3 Zrotation Yrotation Xrotation
					JOINT RightToeBase
					{
						OFFSET -0.164730 -0.452590 2.363150
						CHANNELS 3 Zrotation Yrotation Xrotation
						End Site
						{
							OFFSET 0.000000 0.000000 0.000000
						}
					}
				}
			}
		}
	}
	JOINT LowerBack
	{
		OFFSET 0.000000 0.000000 0.000000
		CHANNELS 3 Zrotation Yrotation Xrotation
		JOINT Spine
		{
			OFFSET 0.028270 2.035590 -0.193380
			CHANNELS 3 Zrotation Yrotation Xrotation
			JOINT Spine1
			{
				OFFSET 0.056720 2.048850 -0.042750
				CHANNELS 3 Zrotation Yrotation Xrotation
				JOINT Neck
				{
					OFFSET 0.000000 0.000000 0.000000
					CHANNELS 3 Zrotation Yrotation Xrotation
					JOINT Neck1
					{
						OFFSET -0.054170 1.746240 0.172020
						CHANNELS 3 Zrotation Yrotation Xrotation
						JOINT Head
						{
							OFFSET 0.104070 1.761360 -0.123970
							CHANNELS 3 Zrotation Yrotation Xrotation
							End Site
							{
								OFFSET 0.000000 0.000000 0.000000
							}
						}
					}
				}
				JOINT LeftShoulder
				{
					OFFSET 0.000000 0.000000 0.000000
					CHANNELS 3 Zrotation Yrotation Xrotation
					JOINT LeftArm
					{
						OFFSET 3.362410 1.200890 -0.311210
						CHANNELS 3 Zrotation Yrotation Xrotation
						JOINT LeftForeArm
						{
							OFFSET 4.983000 -0.000000 -0.000000
							CHANNELS 3 Zrotation Yrotation Xrotation
							JOINT LeftHand
							{
								OFFSET 3.483560 -0.000000 -0.000000
								CHANNELS 3 Zrotation Yrotation Xrotation
								JOINT LeftFingerBase
								{
									OFFSET 0.000000 0.000000 0.000000
									CHANNELS 3 Zrotation Yrotation Xrotation
									JOINT LeftHandIndex1
									{
										OFFSET 0.715260 -0.000000 -0.000000
										CHANNELS 3 Zrotation Yrotation Xrotation
										End Site
										{
											OFFSET 0.000000 0.000000 0.000000
										}
									}
								}
								JOINT LThumb
								{
									OFFSET 0.000000 0.000000 0.000000
									CHANNELS 3 Zrotation Yrotation Xrotation
									End Site
									{
										OFFSET 0.000000 0.000000 0.000000
									}
								}
							}
						}
					}
				}
				JOINT RightShoulder
				{
					OFFSET 0.000000 0.000000 0.000000
					CHANNELS 3 Zrotation Yrotation Xrotation
					JOINT RightArm
					{
						OFFSET -3.136600 1.374050 -0.404650
						CHANNELS 3 Zrotation Yrotation Xrotation
						JOINT RightForeArm
						{
							OFFSET -5.241900 -0.000000 -0.000000
							CHANNELS 3 Zrotation Yrotation Xrotation
							JOINT RightHand
							{
								OFFSET -3.444170 -0.000000 -0.000000
								CHANNELS 3 Zrotation Yrotation Xrotation
								JOINT RightFingerBase
								{
									OFFSET 0.000000 0.000000 0.000000
									CHANNELS 3 Zrotation Yrotation Xrotation
									JOINT RightHandIndex1
									{
										OFFSET -0.622530 -0.000000 -0.000000
										CHANNELS 3 Zrotation Yrotation Xrotation
										End Site
										{
											OFFSET 0.000000 0.000000 0.000000
										}
									}
								}
								JOINT RThumb
								{
									OFFSET 0.000000 0.000000 0.000000
									CHANNELS 3 Zrotation Yrotation Xrotation
									End Site
									{
										OFFSET 0.000000 0.000000 0.000000
									}
								}
							}
						}
					}
				}
			}
		}
	}
}
MOTION
Frames: 12
Frame Time: 0.008333
3.061105 16.805505 0.902148 171.097146 -76.688870 -165.526419 -10.887987 2.251485 1.152340 -6.741257 13.675721 -15.397577 -1.402339 0.133962 25.502745 3.325848 19.275476 -14.145230 -2.278900 0.000000 -42.499100 10.252287 -1.702675 3.711536 -2.471163 0.696380 -21.298577 0.838898 -1.389610 29.991412 -1.496289 -5.810525 -8.537532 -0.150100 0.000000 -63.395600 -4.181532 -1.674008 -7.668879 -1.055452 -1.567827 -3.822323 -3.957744 -1.668306 1.991911 11.911957 -18.981577 -11.751853 -0.707358 0.002875 -1.013963 0.000000 0.000000 0.000000 9.283928 19.388079 0.323742 -40.687616 10.855589 -13.314603 -178.367851 -56.074508 -179.970245 -4.478350 -4.065651 0.184673 0.140606 0.516105 -0.000000 0.000000 0.000000 0.000000 0.000000 0.000000 0.000000 3.271096 -11.031493 -1.851318 29.266504 21.315402 -6.406455 -179.499520 58.853004 179.867991 -15.218522 5.529678 -0.847391 0.389425 -0.666864 -0.000000 0.000000 0.000000 0.000000 0.000000 0.000000 0.000000 
3.047517 16.821370 0.922035 172.220873 -74.398075 -166.679942 -10.932618 2.341539 0.906860 -6.991255 15.078876 -14.795056 -1.436419 0.106592 24.671197 3.424627 20.053965 -13.890652 -2.263000 0.000001 -42.261500 10.203056 -1.717501 4.002499 -2.788266 1.954529 -21.517046 0.846615 -1.350370 29.417797 -1.305829 -4.872418 -7.928706 -0.195700 0.000000 -63.898600 -3.587080 -1.547740 -7.747225 -0.869631 -1.489892 -3.845530 -3.707208 -1.598562 1.998468 11.778266 -18.704320 -11.836853 -0.665990 0.007347 -1.038567 0.000000 0.000000 0.000000 9.138940 19.809064 0.401437 -42.177307 12.020200 -13.371507 -178.283924 -55.262141 -179.966409 -5.082868 -3.292759 0.172978 0.159679 0.490925 0.000000 0.000000 0.000000 0.000000 0.000000 0.000000 0.000000 2.873228 -10.568734 -1.886694 28.965241 22.559764 -5.704961 -179.417863 58.854342 179.863803 -15.446027 5.503804 -0.857704 0.395203 -0.674398 -0.000000 0.000000 0.000000 0.000000 0.000000 0.000000 0.000000 
3.027654 16.843616 0.944650 173.143036 -72.021433 -167.606115 -10.988877 2.449894 0.680382 -7.239426 16.585139 -14.156108 -1.477258 0.062127 23.610748 3.508375 20.787059 -13.507101 -2.186800 -0.000000 -42.071700 10.140311 -1.754947 4.316744 -3.097213 3.155533 -21.701785 0.873592 -1.290265 28.571935 -1.090940 -3.817297 -7.176618 -0.233000 0.000000 -64.487800 -2.904845 -1.434931 -7.864287 -0.664305 -1.434354 -3.868475 -3.455683 -1.550590 2.028911 11.606278 -18.467846 -11.918881 -0.631930 0.011139 -1.062321 0.000000 0.000000 0.000000 8.952108 20.269606 0.467654 -43.480895 12.980447 -13.371652 -178.209370 -54.457653 -179.962949 -5.639059 -2.428680 0.146575 0.178173 0.463077 0.000000 0.000000 0.000000 0.000000 0.000000 0.000000 0.000000 2.507447 -10.188493 -1.935586 28.595467 24.001422 -4.932147 -179.328453 58.870389 179.859432 -15.685494 5.481187 -0.869030 0.401205 -0.681986 -0.000000 0.000000 0.000000 0.000000 0.000000 0.000000 0.000000 
3.001541 16.871631 0.968669 173.909994 -69.584647 -168.341865 -11.063051 2.575751 0.478945 -7.483691 18.173767 -13.503306 -1.524884 0.001218 22.334911 3.574968 21.464508 -12.992703 -2.044399 0.000000 -41.943900 10.058406 -1.815680 4.654813 -3.390359 4.303307 -21.859264 0.920071 -1.208937 27.465394 -0.857162 -2.667928 -6.295866 -0.251500 -0.000000 -65.154199 -2.139569 -1.335499 -8.025904 -0.443902 -1.401907 -3.893630 -3.217508 -1.524700 2.076892 11.396212 -18.282080 -11.995450 -0.608212 0.013953 -1.084566 0.000000 0.000000 0.000000 8.727074 20.736022 0.516986 -44.465330 13.702299 -13.248843 -178.148777 -53.655476 -179.960359 -6.062833 -1.520871 0.106281 0.193371 0.433988 0.000000 0.000000 0.000000 0.000000 0.000000 0.000000 0.000000 2.189012 -9.905312 -1.990459 28.164926 25.637493 -4.101284 -179.237175 58.901825 179.855017 -15.924893 5.465725 -0.881462 0.407463 -0.689734 -0.000000 0.000000 0.000000 0.000000 0.000000 0.000000 0.000000 
2.969810 16.904363 0.992596 174.558756 -67.112995 -168.916567 -11.160796 2.716525 0.305093 -7.720627 19.824062 -12.862453 -1.579222 -0.074264 20.873866 3.622850 22.077597 -12.353645 -1.834400 -0.000001 -41.888200 9.952050 -1.899493 5.017573 -3.660130 5.415699 -21.997818 0.985701 -1.107436 26.124796 -0.611909 -1.457748 -5.309462 -0.242400 -0.000000 -65.879601 -1.298915 -1.247357 -8.235530 -0.213347 -1.390988 -3.924059 -3.006434 -1.518826 2.132490 11.152167 -18.151382 -12.060901 -0.597315 0.015499 -1.103864 0.000000 0.000000 0.000000 8.483580 21.160207 0.544715 -45.016026 14.158745 -12.935506 -178.107010 -52.866452 -179.959034 -6.281157 -0.628841 0.058012 0.202765 0.405565 0.000000 0.000000 0.000000 0.000000 0.000000 0.000000 0.000000 1.929377 -9.726744 -2.041425 27.686206 27.450692 -3.231373 -179.150468 58.945828 179.850699 -16.150809 5.459743 -0.894497 0.413996 -0.697814 -0.000000 0.000000 0.000000 0.000000 0.000000 0.000000 0.000000 
2.933828 16.940398 1.015138 175.121666 -64.633796 -169.361247 -11.286697 2.867772 0.156862 -7.942770 21.517670 -12.257908 -1.640111 -0.161005 19.273971 3.650691 22.616593 -11.604813 -1.560600 0.000000 -41.909500 9.816667 -2.005102 5.404654 -3.898853 6.520707 -22.121211 1.069682 -0.988207 24.589375 -0.363750 -0.228983 -4.246372 -0.199800 -0.000001 -66.636000 -0.392088 -1.165976 -8.491074 0.022366 -1.397214 -3.962155 -2.834791 -1.527877 2.184402 10.880519 -18.076173 -12.106425 -0.600638 0.015549 -1.118048 0.000000 0.000000 0.000000 8.253914 21.487839 0.547370 -45.043562 14.308578 -12.375173 -178.089456 -52.125935 -179.959261 -6.237653 0.178098 0.010790 0.204175 0.380338 0.000000 0.000000 0.000000 0.000000 0.000000 0.000000 0.000000 1.733737 -9.657100 -2.077977 27.177891 29.408876 -2.347501 -179.074693 59.001162 179.846604 -16.348677 5.464928 -0.907730 0.420675 -0.706433 -0.000000 0.000000 0.000000 0.000000 0.000000 0.000000 0.000000 
2.895314 16.978092 1.034981 175.619437 -62.180670 -169.695495 -11.441750 3.024123 0.030265 -8.145783 23.231680 -11.713798 -1.707218 -0.255031 17.595230 3.658319 23.074163 -10.769710 -1.233000 0.000000 -42.005500 9.650575 -2.130031 5.815612 -4.106072 7.649476 -22.235257 1.170057 -0.855152 22.914408 -0.122047 0.969677 -3.145994 -0.123000 -0.000001 -67.385500 0.559330 -1.086636 -8.790128 0.255827 -1.414843 -4.010104 -2.713816 -1.545377 2.222248 10.596838 -18.048255 -12.117568 -0.619460 0.013811 -1.123426 0.000000 0.000000 0.000000 8.086533 21.657420 0.524619 -44.493023 14.101923 -11.543567 -178.102594 -51.503815 -179.961169 -5.900862 0.818869 -0.024871 0.195999 0.361585 0.000000 0.000000 0.000000 0.000000 0.000000 0.000000 0.000000 1.612692 -9.693464 -2.089091 26.654560 31.458495 -1.480694 -179.015280 59.065993 179.842850 -16.505128 5.478506 -0.920156 0.427274 -0.715656 -0.000000 0.000000 0.000000 0.000000 0.000000 0.000000 0.000000 
2.856727 17.015695 1.051406 176.068352 -59.795034 -169.947925 -11.623804 3.179050 -0.081843 -8.319075 24.943757 -11.244858 -1.779893 -0.351351 15.906932 3.645950 23.440973 -9.881294 -0.867900 -0.000000 -42.164900 9.454757 -2.270012 6.246259 -4.281868 8.827484 -22.335121 1.283895 -0.713077 21.161830 0.103942 2.086114 -2.051528 -0.017800 0.000000 -68.087500 1.530073 -1.004188 -9.123391 0.479275 -1.436747 -4.067792 -2.652309 -1.563420 2.239304 10.321210 -18.056431 -12.075213 -0.652992 0.010134 -1.115087 0.000000 0.000000 0.000000 8.024931 21.618739 0.479739 -43.337708 13.453719 -10.460410 -178.153073 -51.116767 -179.964758 -5.266440 1.210754 -0.041255 0.177233 0.353127 0.000000 0.000000 0.000000 0.000000 0.000000 0.000000 0.000000 1.572986 -9.833425 -2.066831 26.136312 33.532812 -0.664489 -178.975679 59.139706 179.839527 -16.607847 5.498710 -0.930676 0.433320 -0.725531 -0.000000 0.000000 0.000000 0.000000 0.000000 0.000000 0.000000 
2.820406 17.051548 1.064117 176.480455 -57.527308 -170.144258 -11.825715 3.326740 -0.185248 -8.454075 26.623965 -10.858322 -1.856864 -0.445193 14.279258 3.615156 23.710624 -8.977810 -0.486200 -0.000000 -42.371500 9.234747 -2.419650 6.690525 -4.431900 10.066615 -22.413931 1.406595 -0.567457 19.401291 0.305830 3.070853 -1.010566 0.104600 0.000001 -68.700900 2.481551 -0.916427 -9.483002 0.682731 -1.457141 -4.134441 -2.656090 -1.575801 2.233321 10.084122 -18.083808 -11.954613 -0.699183 0.004395 -1.086399 0.000000 0.000000 0.000000 8.105691 21.327798 0.420918 -41.582824 12.274459 -9.210189 -178.247855 -51.120712 -179.969924 -4.363748 1.283573 -0.036660 0.148102 0.358579 0.000000 0.000000 0.000000 0.000000 0.000000 0.000000 0.000000 1.628249 -10.069730 -2.006143 25.638151 35.548752 0.065514 -178.956547 59.219920 179.836710 -16.648067 5.519620 -0.937892 0.438190 -0.735858 -0.000000 0.000000 0.000000 0.000000 0.000000 0.000000 0.000000 
2.788860 17.084296 1.073343 176.861120 -55.435778 -170.312053 -12.035626 3.462325 -0.283912 -8.541247 28.234961 -10.550141 -1.936032 -0.532124 12.774873 3.568748 23.880480 -8.100004 -0.110900 0.000000 -42.604300 9.000889 -2.571624 7.138078 -4.562017 11.357781 -22.459680 1.531993 -0.423984 17.702626 0.476797 3.882226 -0.069639 0.228399 -0.000000 -69.192201 3.367097 -0.826101 -9.859077 0.855929 -1.473572 -4.208232 -2.724641 -1.580263 2.205432 9.923148 -18.111730 -11.728869 -0.753265 -0.003317 -1.029905 0.000000 0.000000 0.000000 8.339904 20.756126 0.360650 -39.254073 10.486841 -7.938975 -178.393952 -51.706355 -179.976534 -3.248197 1.008792 -0.018395 0.110336 0.379756 0.000000 0.000000 0.000000 0.000000 0.000000 0.000000 0.000000 1.794197 -10.391188 -1.906896 25.172164 37.415708 0.676557 -178.955233 59.308652 179.834470 -16.620862 5.535359 -0.940513 0.441026 -0.746188 -0.000000 0.000000 0.000000 0.000000 0.000000 0.000000 0.000000 
2.764088 17.112966 1.079894 177.218438 -53.581593 -170.480750 -12.238473 3.582819 -0.378443 -8.570907 29.731504 -10.306494 -2.014306 -0.608432 11.442077 3.510809 23.953450 -7.286540 0.235900 -0.000001 -42.839800 8.767578 -2.717302 7.574317 -4.673785 12.669304 -22.456500 1.653168 -0.287882 16.129089 0.612050 4.490559 0.731677 0.336899 0.000000 -69.540400 4.135815 -0.743501 -10.240527 0.989982 -1.489674 -4.287304 -2.848599 -1.581518 2.157219 9.880948 -18.121572 -11.375697 -0.807076 -0.012587 -0.939057 0.000000 0.000000 0.000000 8.706236 19.891439 0.314264 -36.384616 8.069776 -6.828844 -178.597748 -53.084239 -179.984552 -1.978413 0.422703 0.000215 0.066985 0.414903 0.000000 0.000000 0.000000 0.000000 0.000000 0.000000 0.000000 2.084657 -10.779466 -1.774835 24.748238 39.042710 1.141868 -178.966106 59.409121 179.832893 -16.525593 5.539374 -0.937254 0.440883 -0.755746 -0.000000 0.000000 0.000000 0.000000 0.000000 0.000000 0.000000 
2.747413 17.137007 1.085028 177.560941 -52.021953 -170.676395 -12.418215 3.687146 -0.466775 -8.534849 31.062871 -10.107718 -2.087991 -0.671128 10.310074 3.446350 23.938268 -6.570344 0.536400 0.000000 -43.055600 8.551874 -2.846422 7.980002 -4.761844 13.949039 -22.387387 1.763463 -0.163297 14.731825 0.709128 4.881395 1.364960 0.415401 0.000000 -69.742400 4.740293 -0.688322 -10.612139 1.080182 -1.517488 -4.369741 -3.006821 -1.593647 2.087765 9.998068 -18.097520 -10.888431 -0.849739 -0.022605 -0.811261 0.000000 0.000000 0.000000 9.158679 18.737043 0.296680 -33.014998 5.098344 -6.049638 -178.861416 -55.454041 -179.994164 -0.587341 -0.378665 0.005042 0.021806 0.458337 0.000000 0.000000 0.000000 0.000000 0.000000 0.000000 0.000000 2.504392 -11.208187 -1.622365 24.376569 40.355595 1.445279 -178.982031 59.522591 179.832101 -16.365554 5.525738 -0.927226 0.436986 -0.763540 -0.000000 0.000000 0.000000 0.000000 0.000000 0.000000 0.000000 
